<svg xmlns="http://www.w3.org/2000/svg" version="1.1" xmlns:xlink="http://www.w3.org/1999/xlink" viewBox="0 0 200 200"><rect width="200" height="200" fill="url('#gradient')"></rect><defs><linearGradient id="gradient" gradientTransform="rotate(45 0.5 0.5)"><stop offset="0%" stop-color="#313de4"></stop><stop offset="100%" stop-color="#a4a8d8"></stop></linearGradient></defs><g><g fill="#193148" transform="matrix(1.9887785930082003,0,0,1.9887785930082003,7.866705570902141,114.71930496107159)" stroke="#0e5278" stroke-width="0.9"><path d="M6.69-4.82L4.50-4.82L4.50 0L1.07 0L1.07-14.22L6.75-14.22Q8.38-14.22 9.63-13.62Q10.89-13.02 11.58-11.91Q12.27-10.80 12.27-9.39L12.27-9.39Q12.27-7.31 10.78-6.07Q9.29-4.82 6.69-4.82L6.69-4.82ZM4.50-11.57L4.50-7.47L6.75-7.47Q7.74-7.47 8.27-7.97Q8.79-8.47 8.79-9.38L8.79-9.38Q8.79-10.37 8.25-10.97Q7.71-11.56 6.79-11.57L6.79-11.57L4.50-11.57ZM16.79-14.22L19.61-3.87L22.44-14.22L26.27-14.22L21.48 0L17.73 0L12.99-14.22L16.79-14.22ZM27.30-14.22L31.81-14.22L34.98-4.33L38.14-14.22L42.66-14.22L42.66 0L39.22 0L39.22-3.32L39.55-10.12L36.11 0L33.85 0L30.40-10.13L30.73-3.32L30.73 0L27.30 0L27.30-14.22ZM51.11-7.40L51.11-4.85L45.24-4.85L45.24-7.40L51.11-7.40ZM58.51 0L53.83 0L53.83-14.22L58.41-14.22Q60.29-14.22 61.80-13.36Q63.30-12.51 64.15-10.95Q64.99-9.39 65-7.46L65-7.46L65-6.81Q65-4.85 64.17-3.31Q63.35-1.76 61.85-0.88Q60.35-0.01 58.51 0L58.51 0ZM58.41-11.57L57.26-11.57L57.26-2.64L58.45-2.64Q59.92-2.64 60.71-3.69Q61.50-4.74 61.50-6.81L61.50-6.81L61.50-7.42Q61.50-9.48 60.71-10.53Q59.92-11.57 58.41-11.57L58.41-11.57ZM71.72 0.20L71.72 0.20Q69.29 0.20 67.78-1.25Q66.28-2.71 66.28-5.03L66.28-5.03L66.28-5.30Q66.28-6.92 66.88-8.16Q67.48-9.40 68.63-10.08Q69.79-10.76 71.37-10.76L71.37-10.76Q73.59-10.76 74.88-9.38Q76.17-8.00 76.17-5.53L76.17-5.53L76.17-4.25L69.63-4.25Q69.80-3.36 70.40-2.85Q71.00-2.34 71.94-2.34L71.94-2.34Q73.51-2.34 74.38-3.44L74.38-3.44L75.89-1.66Q75.27-0.81 74.15-0.31Q73.02 0.20 71.72 0.20ZM71.35-8.22L71.35-8.22Q69.90-8.22 69.63-6.31L69.63-6.31L72.95-6.31L72.95-6.56Q72.97-7.35 72.55-7.79Q72.13-8.22 71.35-8.22ZM86.74 0L83.45 0Q83.27-0.32 83.13-0.95L83.13-0.95Q82.23 0.20 80.60 0.20L80.60 0.20Q79.10 0.20 78.06-0.71Q77.01-1.61 77.01-2.98L77.01-2.98Q77.01-4.70 78.28-5.58Q79.55-6.46 81.97-6.46L81.97-6.46L82.99-6.46L82.99-7.01Q82.99-8.47 81.73-8.47L81.73-8.47Q80.56-8.47 80.56-7.31L80.56-7.31L77.27-7.31Q77.27-8.85 78.57-9.80Q79.87-10.76 81.89-10.76Q83.92-10.76 85.09-9.78Q86.26-8.79 86.29-7.07L86.29-7.07L86.29-2.39Q86.31-0.94 86.74-0.17L86.74-0.17L86.74 0ZM81.39-2.15L81.39-2.15Q82.00-2.15 82.41-2.41Q82.81-2.68 82.99-3.01L82.99-3.01L82.99-4.70L82.03-4.70Q80.31-4.70 80.31-3.15L80.31-3.15Q80.31-2.71 80.62-2.43Q80.92-2.15 81.39-2.15ZM91.58-15L91.58 0L88.28 0L88.28-15L91.58-15Z"></path></g></g></svg>